<svg width="20" height="20" viewBox="0 0 20 20" fill="none" xmlns="http://www.w3.org/2000/svg">
<path fill-rule="evenodd" clip-rule="evenodd" d="M4.57221 0.292241C5.23853 0.0651376 5.9361 0.00012207 6.55296 0.00012207C8.01769 0.00012207 9.12203 0.625448 10.0005 1.25309C10.8859 0.620636 11.9829 0.000112295 13.4649 0.00012207C14.1237 0.00012207 14.7977 0.0922122 15.4508 0.309479C19.4402 1.60176 20.7253 5.89703 19.6114 9.42531L19.6067 9.44017L19.6016 9.45487C18.9852 11.2144 17.9772 12.8215 16.6548 14.1362L16.6491 14.1419L16.6433 14.1474C14.7965 15.9254 12.7227 17.5315 10.5148 18.8573L9.99353 19.1703L9.47576 18.8515C7.27266 17.4953 5.23794 15.9323 3.36874 14.1398L3.36103 14.1324L3.35348 14.1249C2.04238 12.8127 1.03447 11.2174 0.40889 9.45953L0.403659 9.44483L0.398889 9.42998C-0.736464 5.894 0.555061 1.60387 4.57221 0.292241ZM6.55296 2.00012C6.05963 2.00012 5.59908 2.05447 5.21316 2.18676L5.20573 2.18931L5.19826 2.19174C2.51011 3.06632 1.40905 6.01165 2.29844 8.80388C2.82404 10.2739 3.66728 11.6071 4.76086 12.7038C6.37537 14.2511 8.12197 15.6184 10.0056 16.823C11.8831 15.6437 13.6551 14.2473 15.2503 12.7123C16.3496 11.6177 17.1916 10.2778 17.7088 8.80857C18.5859 6.00783 17.4776 3.06643 14.8313 2.21113L14.8224 2.20824L14.8224 2.2082C14.3987 2.06687 13.9403 2.00012 13.4649 2.00012C12.3741 2.00011 11.62 2.5251 10.6049 3.29624L9.99902 3.75657L9.39382 3.29529C8.3949 2.53393 7.62429 2.00012 6.55296 2.00012Z" fill="black"/>
</svg>
